<svg xmlns="http://www.w3.org/2000/svg" viewBox="0 0 702.299 701.964"><title>om-logo-black</title><g id="Layer_2" data-name="Layer 2"><g id="Layer_1-2" data-name="Layer 1"><path d="M351.09,701.964C157.109,701.982-.051,544.776,0,350.773.051,157.2,157.435-.092,350.976,0A350.732,350.732,0,0,1,702.3,352.48C701.7,546.91,543.5,702.159,351.09,701.964ZM612.389,165.9,448.337,288.253c14.879,17.239,16.81,22.5,16.67,45.308q-.259,42.094-.606,84.187a6.259,6.259,0,0,0,2.8,5.664q61.409,46.959,122.7,94.077,12.771,9.8,25.519,19.581c12.629-12.552,37.438-64.351,46.429-97.017q22.7-82.463,1.807-165.43A314.91,314.91,0,0,0,612.389,165.9ZM92.81,537.428c.538-.362.883-.573,1.206-.813q76.92-57.35,153.87-114.661A5.449,5.449,0,0,0,250.237,417q.253-46.291.646-92.581c.085-10.093,2.666-19.487,8.725-27.676,2.558-3.457,5.572-6.576,8.566-10.067L101.414,158.713C15.111,268.453,12.723,425.931,92.81,537.428Zm511.6-381.477C478.936-5.442,232.773-3.714,109.6,148.944l79.256,60.8c45.287-52.511,101.785-80.585,170.94-80.074,69.117.511,125.166,29.479,169.443,82.345ZM100.228,547.916c35.648,45.881,79.92,79.929,133.413,101.858A314.473,314.473,0,0,0,336.227,672.76c.074-1.555.167-2.67.175-3.786q.553-79.225,1.143-158.449c.02-2.461-.878-2.913-3.065-2.915-12.842-.007-25.685-.055-38.525-.244-22.323-.329-42.473-17.846-45.153-39.948-1.09-8.992-.56-18.18-.761-27.279-.023-1.063,0-2.126,0-3.971ZM464.557,437.373c-.1,1.159-.195,1.731-.2,2.3-.046,6.109-.071,12.219-.117,18.329-.058,7.732-1.021,15.3-4.467,22.341-8.114,16.585-21.251,26.475-39.755,27.572-13.825.819-27.742.207-41.614,0-2.98-.044-3.593.893-3.609,3.664q-.44,78.754-1.047,157.507c-.008,1.1,0,2.194,0,3.863,96.652-7.875,174.36-49.767,234.659-125.209ZM442,277.1l74.676-55.713c-33.081-43.075-95.021-82.234-173.9-76.169-57.509,4.422-104.37,29.855-141.791,73.838l73.568,56.456.536-4.058c1.061-.053,1.974-.142,2.887-.136,19.471.129,38.941.288,58.412.359a15.475,15.475,0,0,0,3.836-.993c-1.278-.464-2.55-1.318-3.833-1.333-19.469-.231-38.94-.429-58.41-.423-3.185,0-3.134-1.533-3.145-3.8-.011-2.32.035-3.875,3.2-3.775,8.589.271,17.19.18,25.786.244,11.185.083,22.37.2,33.555.217a9.127,9.127,0,0,0,2.881-1.052c-.977-.451-1.931-.965-2.94-1.326a4.938,4.938,0,0,0-1.544-.031c-19.263-.15-38.526-.348-57.789-.393-2.525-.006-3.2-.776-3.077-3.2.53-10.2,4.291-18.941,11.73-25.929a33.778,33.778,0,0,1,18.23-9.288c0,4.824.072,9.35-.034,13.873-.045,1.913.693,2.6,2.527,2.554,2.38-.064,4.772-.119,7.143.045,2.155.149,2.642-.834,2.611-2.75-.066-4.038.1-8.079.032-12.116-.032-1.853.547-2.647,2.493-2.512a48.424,48.424,0,0,0,6.21.015c2.117-.126,2.631.8,2.55,2.772-.165,4.034-.176,8.078-.084,12.114.019.838.725,2.354,1.178,2.379,3.66.2,7.336.11,10.824.11a5.262,5.262,0,0,0,.372-1.036c.063-4.555.021-9.115.247-13.661.043-.871,1.042-2.329,1.76-2.435,8.72-1.286,9.241-.787,9.127,7.864,0,.1-.007.207,0,.311.143,2.948-.817,7.073.73,8.522,1.65,1.546,5.669.564,8.654.683.207.008.492.087.609-.017.768-.683,2.044-1.339,2.142-2.129a65.392,65.392,0,0,0,.188-7.443c.076-7.912.075-7.8,8.105-7.812,2.657,0,3.347.9,3.243,3.423-.189,4.6-.054,9.215-.054,14.126,3.337,0,6.333-.141,9.309.044,2.409.15,3.016-.823,2.95-3.062-.137-4.63-.041-9.267-.041-14.217,3.284,0,6.057.075,8.824-.025,1.982-.071,2.479.882,2.413,2.651-.1,2.69-.041,5.385-.08,8.077-.1,6.709-.1,6.709,6.683,6.714,5.688,0,5.7,0,5.724-5.777.017-3.555,0-7.11,0-10.712,16.415,1.984,30.013,17.77,30.676,34.888.156,4.027.156,4.054-3.954,4.029-19.574-.122-39.148-.277-58.721-.343-.937,0-1.877.717-2.816,1.1a19.91,19.91,0,0,0,2.7,1.231,8.033,8.033,0,0,0,2.164.072c19.263.138,38.527.363,57.79.333,3.564-.006,3.007,1.956,3.136,4.152.145,2.462-.483,3.471-3.223,3.419-11.8-.222-23.612-.215-35.418-.3-8.285-.058-16.571-.161-24.856-.128-.783,0-1.562.838-2.343,1.286.744.368,1.467.789,2.239,1.082a3.747,3.747,0,0,0,1.234.034q29.05.2,58.1.406c1.208.008,2.415,0,3.821,0ZM409.653,475.385c0-3.085-.011-5.847,0-8.61.043-9.438.046-9.438-9.437-9.278a5.967,5.967,0,0,1-.621,0c-1.748-.154-2.394.659-2.34,2.381.081,2.586,0,5.178,0,7.767-.021,9.085-.017,9.041-9.053,8.341-1.612-.125-2.193-.676-2.157-2.244.079-3.416.07-6.835.08-10.253.017-6.081.012-6.081-6.005-6.145-6.309-.067-6.309-.067-6.353,6.12-.01,1.346-.027,2.693-.033,4.039-.041,8.732-.041,8.732-8.818,8.286a2.171,2.171,0,0,0-.31,0c-1.66.156-2.171-.7-2.116-2.236.081-2.276.049-4.556.064-6.835.063-9.908.065-9.845-9.759-9.589-2.123.055-2.681.874-2.614,2.791.091,2.585.014,5.177,0,7.766-.056,8.386-.056,8.317-8.536,8.031-2.111-.071-2.624-.858-2.559-2.8.141-4.243-.06-8.5.17-12.735.139-2.555-.79-3.312-3.2-3.14a47.43,47.43,0,0,1-6.52-.055c-2.129-.143-2.933.58-2.866,2.813.135,4.448.057,8.908-.1,13.357-.027.793-.8,2.2-1.3,2.232-3.165.206-6.351.1-9.792.1,0-3.633-.015-6.818,0-10,.048-8.518.051-8.417-8.526-8.642-2.767-.072-3.879.487-3.676,3.552.3,4.589.079,9.214.079,14.058-1.3-.242-1.906-.315-2.488-.467-15.336-4-26.613-18.5-27.206-34.757-.1-2.747.482-3.82,3.524-3.749,11.7.27,23.4.265,35.108.351,7.975.059,15.95.137,23.924.1a9.054,9.054,0,0,0,2.867-1.075c-.982-.447-1.953-.92-2.951-1.326a2.691,2.691,0,0,0-.925-.014c-19.471-.131-38.942-.33-58.413-.329-3.23,0-3.034-1.693-3.1-3.914-.075-2.4.434-3.472,3.21-3.437,19.676.247,39.355.323,59.033.452a7.5,7.5,0,0,0,2.158-.055,1.773,1.773,0,0,0,1.113-1.167c.029-.364-.618-.987-1.081-1.134a7.474,7.474,0,0,0-2.158-.116q-28.74-.2-57.48-.4c-4.418-.031-4.418-.037-5.005-4.667-3.869,2.862-7.624,5.555-11.25,8.411a3.553,3.553,0,0,0-.833,2.5c-.068,10.77-.385,21.551-.005,32.308.658,18.623,16.649,34.066,35.247,34.225q59.965.514,119.933.786a36.166,36.166,0,0,0,36.2-35.529c.192-10.251.163-20.506.2-30.76,0-.792.033-1.934-.437-2.321-3.623-2.987-7.366-5.827-11.412-8.977l-.5,5.118c-1.382,0-2.5.007-3.623,0l-57.791-.4a9.707,9.707,0,0,0-2.472.062c-.556.146-.99.759-1.478,1.164.5.409.943,1,1.515,1.18a7.492,7.492,0,0,0,2.159.075c19.574.133,39.149.344,58.723.318,3.2,0,3.387,1.385,3.468,3.891.089,2.757-.832,3.5-3.558,3.469-17.812-.228-35.626-.287-53.44-.4-2.382-.015-4.769-.108-7.143.026-.6.034-1.167.8-1.748,1.224a5.843,5.843,0,0,0,1.628,1.049,11.113,11.113,0,0,0,2.475.077c19.367.14,38.733.339,58.1.353,2.85,0,3.479.877,3.288,3.573-.753,10.635-4.826,19.624-12.872,26.664A34.807,34.807,0,0,1,409.653,475.385ZM441.205,366.1c0,3.092-.183,5.566.048,8,.267,2.814-.817,3.466-3.509,3.432-19.363-.242-38.727-.327-58.091-.458a13.424,13.424,0,0,0-2.783.085c-.467.1-.825.715-1.233,1.1.388.4.723,1.065,1.176,1.159a15.863,15.863,0,0,0,3.09.164q29.049.212,58.1.44c1.064.01,2.966.273,3.041.683a14.665,14.665,0,0,1,.039,5.784c-.121.533-2.293.851-3.523.845-19.573-.091-39.146-.271-58.719-.337-1.091,0-2.184.813-3.276,1.249a10.525,10.525,0,0,0,3.132,1.12c7.558.134,15.119.114,22.679.168q18.33.132,36.66.295c1.439.012,3.051-.271,3.027,2.006-.031,2.876-.007,5.752-.007,9.039-1.6,0-2.811.008-4.026,0q-21.437-.168-42.874-.338c-5.592-.042-11.185-.109-16.776-.034-.669.009-1.327.838-1.99,1.286a12.963,12.963,0,0,0,1.931,1.1,4.692,4.692,0,0,0,1.541.047c19.366.113,38.732.266,58.1.295a10.609,10.609,0,0,1,7.388,2.529c2.629,2.256,5.491,4.24,8.706,6.687.08-1.308.154-1.984.158-2.66q.287-42.408.553-84.816c.042-7.232-1.7-14.1-5.992-19.9-2.694-3.642-4.313-7.136-3.311-11.64a1.482,1.482,0,0,0-.217-.994,48.6,48.6,0,0,1-6.808.957c-18.848-.063-37.7-.235-56.544-.372a16.387,16.387,0,0,0-3.1.07c-.574.107-1.053.718-1.575,1.1.479.425.9,1.063,1.452,1.223a9.289,9.289,0,0,0,2.47.1q22.991.134,45.982.266c4.349.027,8.7.006,13.045.2.852.038,2.339.908,2.384,1.485.24,3.057.113,6.144.113,9.6-3.785,0-7.178.021-10.571,0-17.191-.122-34.382-.278-51.573-.338-1.145,0-2.292.689-3.438,1.058,1.192.456,2.37.96,3.585,1.344a5.447,5.447,0,0,0,1.546.032q28.894.173,57.788.371c.869.007,2.45.278,2.487.577a21.475,21.475,0,0,1,.05,6.084c-.073.445-2.1.808-3.226.8q-29.67-.135-59.34-.373a21.569,21.569,0,0,0-2.213.206l-.156,1.1a23.867,23.867,0,0,0,4.959,1.114c18.847.2,37.7.3,56.544.435,1.093.008,2.185.105,3.438.169,0,2.621-.162,4.9.041,7.152.254,2.816-.714,3.717-3.612,3.672-15.428-.234-30.86-.269-46.291-.357-1.264-.007-2.529.107-3.794.165l-.22,1.273a15.955,15.955,0,0,0,3.809,1c15.637.167,31.275.315,46.912.276,2.9-.007,3.468,1.087,3.405,3.653-.06,2.469-.174,3.974-3.439,3.916-14.7-.262-29.41-.244-44.116-.327a7.683,7.683,0,0,0-2.16.038c-.562.168-1,.747-1.493,1.144.505.391.973,1.042,1.523,1.121a30.073,30.073,0,0,0,4.03.136c14.084.1,28.168.153,42.251.351,1.014.014,2.817.964,2.884,1.618.31,3.042.137,6.133.137,9.478-2.333,0-4.179.01-6.024,0-14.4-.086-28.79-.2-43.185-.219a11.536,11.536,0,0,0-3.254,1.008l.327,1.37c1.184,0,2.368-.007,3.553,0q22.835.16,45.67.355c.947.009,2.654.348,2.708.721a15.779,15.779,0,0,1-.045,5.794c-.125.528-2.3.8-3.528.8q-25.165-.068-50.33-.263c-1.558-.01-3.169-.178-3.268,2.562ZM274.6,294.856c1.632,0,2.752-.006,3.871,0q29.046.167,58.093.335a9.462,9.462,0,0,0,2.468-.084,1.918,1.918,0,0,0,1.016-1.246c.063-.229-.545-.848-.939-.954a8.627,8.627,0,0,0-2.157-.137c-14.187-.112-28.379-.013-42.558-.41-7.345-.206-14.886,1.512-22.156-1.7,0,1.892.126,3.746-.043,5.573-.118,1.279-.267,2.84-1.035,3.729-6.97,8.067-9.127,17.559-9.144,27.95-.042,26.508-.325,53.016-.5,79.525-.008,1.182.106,2.364.19,4.1,3.425-2.553,6.4-4.746,9.345-6.972a11.4,11.4,0,0,1,7.414-2.423c19.156.261,38.314.326,57.471.452a8.232,8.232,0,0,0,2.162-.074c.492-.134.875-.668,1.307-1.023-.46-.444-.85-1.052-1.4-1.286a5.091,5.091,0,0,0-1.843-.07q-27.494-.175-54.988-.351c-7.254-.048-7.1-.06-7.266-7.428-.07-3.126,1.044-3.738,3.939-3.7,19.156.254,38.314.329,57.472.456a15.11,15.11,0,0,0,3.09-.132c.422-.086.859-.756,1-1.244.06-.206-.581-.838-.973-.912a15.772,15.772,0,0,0-2.782-.155q-15.844-.133-31.687-.249c-9.009-.066-18.019-.2-27.027-.131-2.358.018-3.211-.752-2.951-3.029.158-1.385.164-2.787.25-4.393,1.511,0,2.635-.007,3.759,0,19.571.141,39.143.3,58.715.376.935,0,1.873-.733,2.809-1.125-.889-.443-1.76-.931-2.677-1.305a3.549,3.549,0,0,0-1.233-.034q-26.873-.182-53.745-.366c-7.777-.055-7.649-.065-7.762-7.8-.041-2.789.836-3.487,3.533-3.449,16.463.229,32.929.292,49.394.4,1.045.007,2.092-.111,3.138-.171l.172-1.316a20.563,20.563,0,0,0-4.23-.942c-16.154-.181-32.309-.376-48.462-.309-3.475.014-3.376-1.656-3.486-4.182-.126-2.895,1.024-3.418,3.628-3.379,14.6.221,29.2.285,43.8.382,1.168.008,2.337-.134,3.506-.206l.252-1.214a13.3,13.3,0,0,0-3.4-.975c-13.358-.159-26.716-.208-40.075-.324-7.619-.066-7.483-.1-7.627-7.7-.056-2.94.926-3.657,3.732-3.61,13.977.233,27.958.271,41.937.378a7.792,7.792,0,0,0,2.162-.036,8.1,8.1,0,0,0,1.863-1.131,8.153,8.153,0,0,0-1.735-1.22,5.62,5.62,0,0,0-1.848-.053c-14.29-.1-28.581-.288-42.871-.221-3.144.015-3.193-1.49-3.175-3.812s.051-3.886,3.211-3.806c10.661.27,21.33.252,32,.336,4.763.038,9.529.136,14.289.019,1.014-.025,2.007-.863,3.01-1.326l-.432-1.126c-1.33,0-2.66.007-3.99,0q-20.5-.116-41.008-.244c-6.982-.053-6.812-.091-7-7.11-.085-3.151.767-4.009,3.971-3.96,18.327.278,36.657.336,54.987.372a23.537,23.537,0,0,0,4.924-1.046l-.153-1.031a7.594,7.594,0,0,0-1.366-.265q-10.094-.119-20.19-.2c-12.944-.083-25.889-.132-38.833-.243-.974-.008-2.716-.246-2.788-.626a15.633,15.633,0,0,1-.184-5.781c.107-.547,2.214-1,3.4-1,19.676.062,39.351.22,59.027.278.941,0,1.885-.717,2.828-1.1-.911-.421-1.811-1.177-2.736-1.209-4.863-.169-9.732-.171-14.6-.2q-22.523-.15-45.046-.3c-1.211-.01-2.972.588-3.023-1.591C274.543,301.308,274.6,298.232,274.6,294.856ZM10.19,339.4a7.837,7.837,0,0,0,7.748,7.666,7.757,7.757,0,1,0-.179-15.512A7.886,7.886,0,0,0,10.19,339.4ZM341.52,18.238a7.813,7.813,0,0,0-7.49-7.894,8.026,8.026,0,0,0-8.011,7.758,7.909,7.909,0,0,0,7.72,7.7A7.762,7.762,0,0,0,341.52,18.238ZM677.685,391.32a7.731,7.731,0,1,0,15.461-.044,7.737,7.737,0,0,0-7.768-7.58A7.657,7.657,0,0,0,677.685,391.32ZM41.982,208.9a7.736,7.736,0,1,0,15.45.818,7.736,7.736,0,0,0-15.45-.818Zm624.5,49.174a7.653,7.653,0,0,0,7.7,7.638,7.847,7.847,0,0,0,7.735-7.974A7.978,7.978,0,0,0,674,250.228,7.824,7.824,0,0,0,666.481,258.079ZM204.44,44.4a7.724,7.724,0,1,0-.065,15.447A7.724,7.724,0,0,0,204.44,44.4Zm454.286,179.15a7.636,7.636,0,0,0,7.667-7.648,7.729,7.729,0,0,0-15.457-.206A7.667,7.667,0,0,0,658.726,223.552ZM79.286,170.179a7.645,7.645,0,0,0-7.579-7.746,7.717,7.717,0,1,0-.078,15.43A7.727,7.727,0,0,0,79.286,170.179Zm532.259-38.16a7.817,7.817,0,0,0-7.817,7.883,7.739,7.739,0,1,0,7.817-7.883ZM509.906,643.751a7.744,7.744,0,1,0,15.486-.2,7.831,7.831,0,0,0-7.855-7.528A7.745,7.745,0,0,0,509.906,643.751Zm-119.75,48.935a7.705,7.705,0,1,0-7.632-7.711A7.7,7.7,0,0,0,390.157,692.686ZM19.051,391.9a7.772,7.772,0,0,0,7.861-7.5,7.944,7.944,0,0,0-7.757-8,7.913,7.913,0,0,0-7.685,7.739A7.676,7.676,0,0,0,19.051,391.9ZM423.335,32.668a7.782,7.782,0,0,0,7.612-7.8,7.747,7.747,0,0,0-15.491.29A7.654,7.654,0,0,0,423.335,32.668ZM562.826,619.077a7.733,7.733,0,0,0-7.565-7.791,8.02,8.02,0,0,0-7.92,7.851,7.931,7.931,0,0,0,7.806,7.624A7.784,7.784,0,0,0,562.826,619.077ZM58.165,519.9a7.739,7.739,0,0,0,.353-15.473,7.739,7.739,0,1,0-.353,15.473Zm530.9,77.374a7.82,7.82,0,0,0,7.67-7.776,7.715,7.715,0,1,0-7.67,7.776ZM173.711,639.93a7.753,7.753,0,1,0,8.174-7.533A7.879,7.879,0,0,0,173.711,639.93ZM469.445,663.2a7.81,7.81,0,0,0,7.727,7.727,7.906,7.906,0,0,0,7.763-7.728,8.012,8.012,0,0,0-7.771-7.751A7.853,7.853,0,0,0,469.445,663.2ZM553.5,78.828a7.665,7.665,0,0,0-7.57-7.74,7.766,7.766,0,0,0-7.871,7.8,7.721,7.721,0,0,0,15.442-.055Zm34.841,28.336a7.717,7.717,0,0,0-7.578-7.827,7.912,7.912,0,0,0-7.834,7.643,7.772,7.772,0,0,0,7.656,7.788A7.622,7.622,0,0,0,588.339,107.164Zm82.574,371.008a7.733,7.733,0,1,0-15.465.083,7.734,7.734,0,0,0,15.465-.083ZM111.164,592.09a7.728,7.728,0,0,0,7.828-7.59,7.742,7.742,0,0,0-15.483-.183A7.752,7.752,0,0,0,111.164,592.09Zm40.984,22.428a7.659,7.659,0,0,0-7.677-7.634,7.565,7.565,0,0,0-7.647,7.944,7.664,7.664,0,1,0,15.324-.311ZM106.212,134.129a7.67,7.67,0,1,0-7.505,7.834A7.694,7.694,0,0,0,106.212,134.129ZM669.529,435.565a7.719,7.719,0,0,0,15.438.052,7.751,7.751,0,0,0-7.868-7.791A7.663,7.663,0,0,0,669.529,435.565ZM253.5,35.088a7.688,7.688,0,1,0-7.814,7.573A7.7,7.7,0,0,0,253.5,35.088ZM229.138,660.561a7.6,7.6,0,0,0-7.548-7.817,7.774,7.774,0,0,0-7.869,7.572,7.923,7.923,0,0,0,7.627,7.875A7.718,7.718,0,0,0,229.138,660.561ZM25.6,251.068a7.745,7.745,0,0,0,7.6,7.766,7.757,7.757,0,1,0,.009-15.513A7.742,7.742,0,0,0,25.6,251.068ZM22.766,302.38a7.785,7.785,0,0,0,7.566-7.857,7.936,7.936,0,0,0-7.538-7.623,7.742,7.742,0,1,0-.029,15.481ZM173.17,74.659a7.714,7.714,0,0,0-7.6-7.737,7.739,7.739,0,1,0,.026,15.476A7.678,7.678,0,0,0,173.17,74.659ZM676.193,301.824a7.7,7.7,0,0,0,8.011,7.7,7.7,7.7,0,0,0-.676-15.385A7.642,7.642,0,0,0,676.193,301.824ZM386.427,18.514a7.695,7.695,0,0,0-15.389-.033,7.822,7.822,0,0,0,7.852,7.829A7.7,7.7,0,0,0,386.427,18.514Zm-89.506,4.948a7.694,7.694,0,0,0-15.387.06,7.828,7.828,0,0,0,7.9,7.795A7.719,7.719,0,0,0,296.921,23.461Zm18.623,660.807a7.606,7.606,0,0,0-7.44-7.85,7.752,7.752,0,0,0-7.943,7.715,7.886,7.886,0,0,0,7.34,7.732A7.688,7.688,0,0,0,315.544,684.268ZM629.869,175.951a7.755,7.755,0,1,0,7.954-7.371A7.765,7.765,0,0,0,629.869,175.951ZM47.2,471.43a7.693,7.693,0,1,0-7.746,7.639A7.691,7.691,0,0,0,47.2,471.43Zm579.084,84.26a7.626,7.626,0,0,0-7.778-7.581,7.8,7.8,0,0,0-7.542,7.869,7.525,7.525,0,0,0,7.833,7.5A7.43,7.43,0,0,0,626.289,555.69ZM137.718,102.084a7.606,7.606,0,0,0-7.823-7.547,7.673,7.673,0,1,0,.249,15.345A7.608,7.608,0,0,0,137.718,102.084ZM695.279,346.54a7.666,7.666,0,1,0-7.665,7.719A7.688,7.688,0,0,0,695.279,346.54ZM442.174,676.876a7.728,7.728,0,1,0-7.558,7.839A7.69,7.69,0,0,0,442.174,676.876ZM515.158,55.384a7.681,7.681,0,0,0-15.361-.15,7.681,7.681,0,1,0,15.361.15ZM82.487,557.779A7.663,7.663,0,0,0,90,550.243a7.66,7.66,0,1,0-15.31-.028A7.626,7.626,0,0,0,82.487,557.779ZM263.974,682.865a7.679,7.679,0,1,0-7.8-7.577A7.7,7.7,0,0,0,263.974,682.865ZM643.531,526.15a7.647,7.647,0,0,0,7.7-7.662,7.775,7.775,0,0,0-7.365-7.725,7.655,7.655,0,0,0-7.952,7.715A7.456,7.456,0,0,0,643.531,526.15ZM360.407,687.138a7.694,7.694,0,1,0-7.718,7.591A7.6,7.6,0,0,0,360.407,687.138ZM474.041,37.307a7.758,7.758,0,0,0-7.712-7.725,7.982,7.982,0,0,0-7.723,7.793,7.869,7.869,0,0,0,7.778,7.7A7.753,7.753,0,0,0,474.041,37.307ZM26.423,420.845a7.662,7.662,0,1,0,7.612,7.684A7.492,7.492,0,0,0,26.423,420.845Zm247.071-8.369c12.937,0,25.537-.018,38.136.006,8.478.017,16.957.12,25.435.1a6.707,6.707,0,0,0,2.286-.962,18.423,18.423,0,0,0-2.277-1.375,4.264,4.264,0,0,0-1.536-.029q-30.7-.285-61.4-.561c-.179,0-.359.154-.639.282Zm168.162-.684-.77-.894c-1.444,0-2.888.009-4.331,0-19.433-.143-38.866-.309-58.3-.375-.968,0-1.94.861-2.91,1.322.746.364,1.49,1.041,2.24,1.048q31.009.307,62.019.423C440.287,413.316,440.972,412.322,441.656,411.792ZM274.564,287.431c-.445-2.03,1.094-2.531,3.823-2.5q29.471.352,58.946.4c.933,0,1.869-.729,2.8-1.119-.9-.422-1.8-1.21-2.7-1.213-20.959-.069-41.919-.054-63.134-.054ZM441.775,283.2q-30.771,0-61.473,0a13.733,13.733,0,0,0-2.78.092c-.473.1-.837.713-1.251,1.094.388.4.715,1.021,1.177,1.146a9.871,9.871,0,0,0,2.465.129q21.261.159,42.522.308c5.9.041,11.795.047,17.691.13C441.873,286.127,442.713,285.636,441.775,283.2Zm-90.925,61.641a6.307,6.307,0,0,0,6.208,6.4,6.619,6.619,0,0,0,6.664-6.707,6.45,6.45,0,0,0-6.5-6.161A6.073,6.073,0,0,0,350.849,344.843Z"/><path d="M357.581,170.782l9.79-22.41-.407-.23-25.981,30.552,11.886,1.119L342.729,206.3l.505.271,24.836-34.249Zm-3.2,64.1c1.616,0,2.944-.114,4.246.025,2.421.258,3.339-.631,3.124-3.125-.2-2.348,0-4.731.02-7.1.034-4.876-.809-5.61-5.71-4.713-.623.114-1.593.882-1.607,1.37C354.327,225.73,354.38,230.124,354.38,234.884Zm46.979-7.141h-.073c0,1.646.093,3.3-.024,4.935-.134,1.87.586,2.686,2.468,2.524a11.339,11.339,0,0,1,2.465.007c2.14.288,2.653-.774,2.593-2.685a52.879,52.879,0,0,1,.106-8.322c.412-3.224-.722-4.009-3.831-4.019-3.028-.01-4.112.923-3.73,3.86A28.872,28.872,0,0,1,401.358,227.743Zm-86.64,6.276c0-4.209.025-8.414-.032-12.617-.007-.522-.422-1.468-.7-1.487a19.64,19.64,0,0,0-5.764.1c-.514.122-.663,2.293-.759,3.541-.135,1.739-.063,3.495-.08,5.243-.059,6.216-.059,6.218,6.261,5.683A5.941,5.941,0,0,0,314.718,234.018Zm16.113-6.865h-.06c0,1.648.121,3.308-.03,4.942-.2,2.115.769,2.776,2.695,2.61a12.092,12.092,0,0,1,2.161.007c1.906.18,2.841-.418,2.743-2.565a69.476,69.476,0,0,1,.1-8.957c.235-2.8-.848-3.574-3.52-3.459-4.051.174-4.059.021-4.091,4.021C330.823,224.887,330.831,226.021,330.831,227.154Zm47.021.268h-.074c0,1.031.006,2.062,0,3.092-.034,4.671-.035,4.575,4.731,4.591,2.039.007,2.744-.686,2.668-2.69a62.721,62.721,0,0,1,.092-8.344c.3-3.082-.675-4.163-3.893-4.1-2.875.058-3.95.9-3.55,3.742A26.835,26.835,0,0,1,377.852,227.421Z" fill="#fff"/><path d="M551.921,379.1H532.728l1.112-37.314c-.658,1.373-1.114,2.179-1.443,3.034-2.679,6.95-5.391,13.888-7.959,20.879-.632,1.722-1.443,2.462-3.343,2.337a55.671,55.671,0,0,0-8.069,0c-2.066.165-2.921-.73-3.59-2.493-2.642-6.962-5.387-13.884-8.1-20.818-.28-.714-.615-1.407-1.212-2.765.4,12.795.768,24.807,1.148,37.053H482.055V303.52c6,0,11.874-.077,17.738.1.735.022,1.717,1.243,2.1,2.121,4.736,10.8,9.38,21.643,14.054,32.471.238.551.529,1.08,1.059,2.154,2.53-5.8,4.866-11.137,7.183-16.48,2.553-5.886,5.156-11.752,7.594-17.685.812-1.975,1.844-2.847,4.1-2.769,5.261.181,10.533.058,16.032.058Z"/><path d="M650.721,319.633l-15.6,6.342c-2.5-3.364-5.758-5.833-10.015-5.834a23.339,23.339,0,0,0-8.337,1.667c-2.653,1.042-3.971,3.5-3.976,6.486-.013,8.591-.051,17.182-.043,25.773,0,3.812,2.156,6.124,5.514,7.466,6.074,2.427,11.7.471,16.173-5.72l16.747,7.7c-2.531,3.112-4.537,6.232-7.161,8.691-10.947,10.261-29.742,10.737-41.431,1.255a22.711,22.711,0,0,1-8.843-18.05c-.119-9.211-.081-18.424-.026-27.636.055-9.176,4.311-16.006,12.034-20.724,13.194-8.059,30.636-5.826,39.994,5.182A78.849,78.849,0,0,1,650.721,319.633Z"/><path d="M583.13,379.11H564.567V303.685H583.13Z"/><path d="M227.321,353.7l20.291,25.662H242.5c-5.178,0-10.359-.093-15.534.041a5.056,5.056,0,0,1-4.87-2.4c-4.622-6.617-9.508-13.049-14.209-19.613-1.2-1.678-2.427-2.841-4.908-1.872v23.561h-19.2v-75.02c.173-.125.338-.347.5-.345,12.106.124,24.263-.382,36.3.58,13.1,1.047,21,10.411,21.267,23.548a40.742,40.742,0,0,1-.857,9.244C239.285,345.06,237.234,347.393,227.321,353.7Zm-24.335-15.169c4.687,0,9.235.372,13.689-.111,3.948-.428,6.536-4.183,6.6-8.23.061-3.92-2.674-7.994-6.455-8.373-4.548-.456-9.178-.108-13.833-.108Z"/><path d="M101.642,341.818c0,3.52-.158,7.049.028,10.559.743,14.047-7.774,22.958-19.569,26.317-11.939,3.4-23.433,2.323-33.758-5.077-6.4-4.588-9.4-11.14-9.454-18.983-.059-8.179-.023-16.359-.006-24.538.026-12.829,5.734-21.19,17.934-25.291,12-4.032,23.726-3.26,34.484,3.9a22.231,22.231,0,0,1,10.317,19.14c.063,4.658.011,9.318.011,13.978Zm-19.1-.31c0-4.142-.063-8.286.018-12.426.075-3.813-1.843-6.31-5.13-7.742a17.165,17.165,0,0,0-13.894-.212c-3.5,1.466-5.626,3.983-5.568,8.115.116,8.179.108,16.362.023,24.541a7.337,7.337,0,0,0,4.69,7.335,17.593,17.593,0,0,0,15.871-.35,7.06,7.06,0,0,0,4.006-6.834C82.5,349.792,82.547,345.65,82.545,341.508Z"/><path d="M111.662,303.782H130.81c0,1.232,0,2.332,0,3.433q0,22.666.006,45.331c0,5.382,1.821,8.241,6.267,9.926,4.631,1.756,10.929.717,13.412-2.832a12.9,12.9,0,0,0,2.1-6.871c.181-15.108.093-30.22.093-45.33v-3.581h19.28c0,1.121,0,2.3,0,3.487-.008,15.007-.341,30.023.066,45.018.407,15.031-9.274,24.688-22.037,27.355-10.73,2.242-20.842.771-29.651-6.2-5.3-4.2-8.475-9.905-8.583-16.6C111.474,339.336,111.662,321.746,111.662,303.782Z"/><path d="M348.715,67.288c-1.307,1.8-2.388,2.08-4.084.512-3.3-3.054-9.588-3.235-13.277-.667a6.42,6.42,0,0,0-2.911,6.111c.289,4.44.465,8.886.727,13.328.253,4.3,2.289,6.661,6.494,7.426a11.451,11.451,0,0,0,9.167-1.867c3.718-2.733,2.712-6.486,2.12-10.438a60.73,60.73,0,0,1-6.868.426c-.976-.041-1.914-.977-2.87-1.506.881-.64,1.7-1.7,2.655-1.839,2.652-.376,5.361-.341,8.044-.517,1.784-.117,2.747.578,2.777,2.444.038,2.379.278,4.765.16,7.135-.29,5.839-6.146,10.129-13.3,9.765-7.112-.362-11.909-4.062-11.81-11.5.048-3.614-.314-7.234-.522-10.85-.53-9.182,5.977-14.872,15.155-13.175C343.713,62.691,346.7,63.982,348.715,67.288Z"/><path d="M469.341,124.8a16.868,16.868,0,0,1-12.74-6.611,9.446,9.446,0,0,1-1.1-10.75c2.206-4.322,4.375-8.664,6.568-12.993a9.168,9.168,0,0,1,7-5.042c6.149-1.094,14.179,3.176,16.7,8.883a9.085,9.085,0,0,1-.178,8.075c-2.161,4.342-4.4,8.647-6.538,13C477.13,123.263,473.872,124.769,469.341,124.8Zm-1.3-3.408c4.468.275,6.712-.848,8.076-3.574,1.849-3.694,3.728-7.373,5.568-11.072,2.748-5.523,2.042-8.425-3.2-11.7a19.482,19.482,0,0,0-5.98-2.354c-3.636-.817-5.94.355-7.676,3.669-2.2,4.209-4.247,8.5-6.416,12.729a6.151,6.151,0,0,0,.925,7.206A13.73,13.73,0,0,0,468.038,121.393Z"/><path d="M364.349,65.578l-.8,12.165c4,.3,7.772.586,11.542.86a10.733,10.733,0,0,1,3.072.241c.766.3,1.281,1.242,1.906,1.9-.712.532-1.435,1.535-2.133,1.518-4.032-.1-8.059-.444-12.088-.689-.714-.043-1.432-.006-2.562-.006l-.84,11.823c4.662.319,8.971.608,13.279.914a10.1,10.1,0,0,1,3.061.375c.681.28,1.107,1.181,1.647,1.806-.662.492-1.346,1.437-1.981,1.4-5.993-.3-11.987-.683-17.951-1.322-.626-.067-1.551-1.963-1.5-2.969.352-7.235.923-14.46,1.418-21.688q.255-3.718.475-7.438c.1-1.731.777-2.618,2.723-2.459,5.57.455,11.157.707,16.72,1.233.783.074,1.463,1.233,2.191,1.89-.839.527-1.7,1.537-2.512,1.5C374.966,66.428,369.925,65.983,364.349,65.578Z"/><path d="M530.376,170.983c-2.147-1.2-1.8-2.1-.351-3.375,7.059-6.224,14.011-12.569,21.078-18.784a12.41,12.41,0,0,1,3.308-1.491c.184,1.316.813,2.759.482,3.929-2.589,9.145-5.364,18.238-8.08,27.348-.226.758-.444,1.519-.925,3.167,5.355-4.8,10.026-8.994,14.7-13.182,1.772-1.587,3.493-3.24,5.36-4.707a7.85,7.85,0,0,1,2.534-.823c-.23.921-.161,2.15-.739,2.713-2.963,2.883-6.081,5.607-9.166,8.363-4.7,4.195-9.411,8.369-14.085,12.523-2.114-.97-2.4-2.27-1.759-4.336,3.006-9.758,5.841-19.569,9.009-30.283Z"/><path d="M427.184,71.888c4.54.552,9.374,1.883,11.95,7.041.438.878.446,2.789-.1,3.178-1.352.97-2.125.059-2.83-1.481-1.779-3.889-7.9-6.286-12.032-5.027a5.165,5.165,0,0,0-2.242,8.851,38.1,38.1,0,0,0,5.085,3.5,41.678,41.678,0,0,1,5.805,4.088c4.949,4.83,3.127,12.454-3.378,14.765-6.364,2.261-14.862-1.133-17.418-7.092-.35-.815.091-1.968.165-2.965.937.478,2.268.71,2.747,1.475a11.639,11.639,0,0,0,11.231,5.811,5.954,5.954,0,0,0,5.722-4.455c.811-2.6-.426-4.5-2.384-5.878-2.443-1.723-5.1-3.139-7.6-4.787-4.2-2.771-5.914-6.394-4.911-10.146C418.16,74.422,421.648,71.9,427.184,71.888Z"/><path d="M294.256,101.442c1.4-7.875,2.708-15.2,4.01-22.534.578-3.257,1.03-6.543,1.79-9.756a3.669,3.669,0,0,1,2.025-2.454,3.368,3.368,0,0,1,2.746,1.452q8.1,13.408,15.913,26.99c.473.821.111,2.123.137,3.2-1.032-.542-2.4-.835-3.029-1.677a33.059,33.059,0,0,1-3.631-6.122c-.971-2.132-2.349-2.481-4.435-1.995-2.512.586-5.071,1-7.626,1.374a3.056,3.056,0,0,0-3.016,3.169,50.159,50.159,0,0,1-1.566,8.209c-.179.665-1.378,1.226-2.211,1.45C295.081,102.825,294.479,101.719,294.256,101.442Zm8.76-29.8-2.734,15.269,10.57-1.963Z"/><path d="M529.449,128.57l-8.227,9.467c2.5,2.158,4.889,4.212,7.272,6.269a15.8,15.8,0,0,1,2.532,2.266c.792,1.069,2.09,3.079,1.77,3.438-1.809,2.036-2.817-.394-3.9-1.256-3.224-2.572-6.28-5.355-9.7-8.316l-8.234,9.391c4.061,3.544,7.9,6.983,11.847,10.3,1.546,1.3,1.991,2.322-.342,3.685-4.8-4.135-9.723-8.33-14.554-12.63a2.16,2.16,0,0,1-.156-2.106c7.024-8.236,14.132-16.4,21.469-24.863,5.1,4.435,9.935,8.6,14.686,12.85.412.369.271,1.354.387,2.053-.866-.042-2.013.261-2.552-.18-3.68-3.009-7.229-6.176-10.828-9.284C530.535,129.319,530.1,129.046,529.449,128.57Z"/><path d="M491.75,123.927c-2.1,3.019-3.962,5.879-6.044,8.572-.51.659-1.73.769-2.624,1.131,0-.91-.375-2.063.043-2.693q8.327-12.537,16.926-24.89a3.063,3.063,0,0,1,2.933-.581,100.756,100.756,0,0,1,9.468,6.47,10.456,10.456,0,0,1,2.222,14.2,10.263,10.263,0,0,1-13.842,3.689C497.766,128.16,494.952,126.03,491.75,123.927Zm10.367-15.39L493.559,121.2c2.851,1.93,5.5,3.909,8.319,5.586a7.182,7.182,0,0,0,9.88-2.046,7.263,7.263,0,0,0-1.173-10.277C507.963,112.331,505.045,110.564,502.117,108.537Z"/><path d="M248.144,97.973c1.684-.215,4.44-.718,7.216-.89,5.3-.329,8.825,1.781,10.16,5.832,1.377,4.178-.419,8.716-4.68,11.428-4.216,2.684-8.745,3.819-13.535,1.724-.923-.4-1.441-1.732-2.146-2.634,1.029-.071,2.16-.457,3.07-.161a11.669,11.669,0,0,0,12.336-2.7,6.034,6.034,0,0,0,1.672-7.071c-1.019-2.556-3.212-3.445-5.785-3.267-2.985.206-5.95.7-8.934.927-5.578.427-9.059-1.573-10.381-5.827-1.316-4.234.6-8.418,5.238-11.082,4.13-2.37,8.475-3.387,12.966-1.032.686.36.965,1.5,1.433,2.273-.951.165-2.06.731-2.826.428a11.563,11.563,0,0,0-12.25,2.669,5.512,5.512,0,0,0-1.258,6.546C241.747,97.978,244.368,98.153,248.144,97.973Z"/><path d="M213.355,135.811c4.67-2.916,9.02-5.694,13.452-8.337.688-.41,1.745-.2,2.631-.278-.423.88-.607,2.118-1.306,2.582-4.479,2.974-9.089,5.749-13.612,8.659-1.233.793-2.156,1.073-3.075-.4-5.582-8.94-11.2-17.859-17.106-27.271,2.032-1.273,3.91-2.445,5.783-3.625,3.326-2.095,6.614-4.256,10-6.241.679-.4,1.746-.132,2.635-.173-.38.822-.534,1.984-1.176,2.409-4.3,2.847-8.7,5.537-13.41,8.489l6.881,10.905c4.181-2.626,8.075-5.156,12.074-7.508.733-.431,1.89-.141,2.851-.184-.438.85-.656,2.028-1.351,2.5-3.854,2.593-7.824,5.014-12.022,7.663Z"/><path d="M177.766,146.831c3,3.67,5.792,6.986,8.438,10.415.464.6.313,1.676.447,2.532-.764-.293-1.793-.364-2.251-.912-6.688-8.019-13.3-16.1-19.94-24.182,1.161-2.172,2.133-1.5,3.236-.133,2.72,3.371,5.5,6.7,8.453,10.282l14.757-12.065c-2.818-3.451-5.6-6.75-8.231-10.168-.533-.692-.486-1.831-.706-2.764.881.393,2.044.551,2.6,1.216q9.159,10.959,18.114,22.088c.554.689.53,1.843.774,2.781-.889-.384-2.044-.533-2.621-1.191-2.789-3.177-5.423-6.49-8.3-9.986Z"/><path d="M276.963,75.769c2.568,8.956,5.069,17.676,7.569,26.4.171.6.577,1.25.453,1.779a11.886,11.886,0,0,1-1.151,2.428c-.644-.517-1.666-.916-1.871-1.57-1.39-4.435-2.6-8.927-3.884-13.394-1.4-4.842-2.82-9.677-4.294-14.726-2.711.744-5.151,1.548-7.653,2.031-.958.185-2.057-.367-3.092-.583.678-.807,1.211-2.086,2.057-2.347q9.482-2.919,19.088-5.426c.765-.2,1.788.576,2.691.9-.66.732-1.186,1.821-2.005,2.128C282.378,74.317,279.772,74.948,276.963,75.769Z"/><path d="M149.43,153.878c-2.329,2.136-4.328,4.08-6.467,5.857-.565.469-1.561.419-2.359.607.1-.891-.132-2.09.359-2.626,4.536-4.956,9.191-9.8,13.825-14.669,1.291-1.355,2.431-1.414,3.394.694l-7.118,7.6c6.071,5.767,12.042,11.438,18.012,17.111a30.264,30.264,0,0,1,3.094,3.039,6.594,6.594,0,0,1,.664,2.37c-.888-.1-2.075.134-2.617-.352-3.616-3.244-7.094-6.643-10.618-9.989C156.15,160.25,152.7,156.979,149.43,153.878Z"/><path d="M399.92,100c1.637-8.094,3.147-15.568,4.663-23.041.512-2.525.9-5.088,1.644-7.544.233-.768,1.442-1.24,2.2-1.848.363.828,1.162,1.739,1.023,2.471q-2.838,14.88-5.973,29.7a2.782,2.782,0,0,1-1.973,1.746C400.93,101.528,400.266,100.353,399.92,100Z"/><path d="M357.581,170.782l10.488,1.536-24.836,34.249-.505-.271,10.141-26.481-11.886-1.119,25.981-30.552.407.23Z"/><path d="M354.38,234.884c0-4.76-.052-9.154.073-13.543.014-.488.984-1.256,1.607-1.37,4.9-.9,5.744-.163,5.71,4.713-.017,2.367-.223,4.75-.02,7.1.215,2.495-.7,3.384-3.124,3.125C357.324,234.77,356,234.884,354.38,234.884Z"/><path d="M401.358,227.743a28.872,28.872,0,0,0-.026-3.7c-.382-2.937.7-3.871,3.73-3.86,3.109.01,4.244.8,3.831,4.019a52.879,52.879,0,0,0-.106,8.322c.06,1.912-.453,2.973-2.593,2.685a11.339,11.339,0,0,0-2.465-.007c-1.883.162-2.6-.653-2.468-2.524.117-1.637.024-3.29.024-4.935Z"/><path d="M314.718,234.018a5.941,5.941,0,0,1-1.071.466c-6.319.535-6.32.533-6.261-5.683.017-1.748-.055-3.5.08-5.243.1-1.248.245-3.419.759-3.541a19.64,19.64,0,0,1,5.764-.1c.275.019.69.965.7,1.487C314.743,225.6,314.718,229.81,314.718,234.018Z"/><path d="M330.831,227.154c0-1.133-.008-2.266,0-3.4.032-4,.041-3.847,4.091-4.021,2.673-.115,3.756.656,3.52,3.459a69.476,69.476,0,0,0-.1,8.957c.1,2.147-.837,2.744-2.743,2.565a12.092,12.092,0,0,0-2.161-.007c-1.926.166-2.89-.5-2.695-2.61.151-1.634.03-3.294.03-4.942Z"/><path d="M377.852,227.421a26.835,26.835,0,0,0-.029-3.707c-.4-2.837.675-3.684,3.55-3.742,3.219-.065,4.19,1.016,3.893,4.1a62.721,62.721,0,0,0-.092,8.344c.075,2-.629,2.7-2.668,2.69-4.765-.015-4.764.08-4.731-4.591.007-1.031,0-2.062,0-3.092Z"/><path d="M336.655,467.707c0,1.137.011,2.275,0,3.412-.048,4.3-2.235,5.854-6.359,4.368a2.367,2.367,0,0,1-1.147-1.808c-.085-4.031-.11-8.07.094-12.093.036-.706,1.141-1.681,1.945-1.944a5.377,5.377,0,0,1,3.353.015,3.581,3.581,0,0,1,2.089,2.171,37.068,37.068,0,0,1,.1,5.878Z"/><path d="M360.058,467.972a31.159,31.159,0,0,0,.029,4.033c.39,2.968-.7,3.9-3.745,3.868-2.99-.027-4-.886-3.76-3.873a83.618,83.618,0,0,0,.055-9.62c-.069-2,.62-2.72,2.669-2.729,4.8-.023,4.8-.117,4.782,4.6,0,1.242,0,2.484,0,3.726Z"/><path d="M383.564,467.93a39.446,39.446,0,0,0,.032,4.641c.339,2.84-.935,3.357-3.548,3.439-3.163.1-4.219-.866-3.933-4.021a74.4,74.4,0,0,0,.08-9.592c-.083-2.116.81-2.61,2.749-2.6,4.693.024,4.692-.055,4.661,4.727-.007,1.135,0,2.271,0,3.406Z"/><path d="M399.779,476.081c0-5.064-.06-9.684.074-14.3.017-.587.977-1.511,1.625-1.637a9.5,9.5,0,0,1,3.984.041,2.7,2.7,0,0,1,1.709,1.857c.133,4.016.12,8.046-.1,12.057-.037.693-1.2,1.744-1.98,1.891A30.785,30.785,0,0,1,399.779,476.081Z"/><path d="M312.975,467.641a25.868,25.868,0,0,0,.034,4.031c.53,3.322-.966,3.913-3.989,3.88-2.851-.032-3.543-.95-3.347-3.613a94.192,94.192,0,0,0,.093-10.24c-.1-2.741,1.734-2.378,3.333-2.26,1.62.119,4.057-.968,3.923,2.3-.08,1.963-.015,3.932-.015,5.9Z"/></g></g></svg>